<svg width="73" height="47" viewBox="0 0 73 47" fill="none" xmlns="http://www.w3.org/2000/svg">
<path d="M63.3333 34.617C63.0198 34.617 62.7847 34.4668 62.6018 34.1163C62.445 33.8158 62.3405 33.3151 62.3405 32.7141V14.236C62.3405 13.6351 62.4189 13.1343 62.6018 12.8339C62.7847 12.5334 63.0198 12.3832 63.3333 12.3832H65.0838C65.4757 12.3832 65.8154 12.4333 66.1028 12.4833C66.3901 12.5835 66.6514 12.7337 66.8343 13.0342C67.0433 13.3346 67.1739 13.7353 67.2785 14.3362C67.383 14.887 67.4352 15.6882 67.4352 16.6397V30.3606C67.4352 31.6125 67.3568 32.5138 67.1739 33.1147C66.9911 33.7157 66.7298 34.1163 66.3901 34.3166C66.0505 34.5169 65.6063 34.617 65.0838 34.567L63.3333 34.617ZM57.7161 1.61681C57.4026 1.66689 57.1413 1.81712 56.9845 2.11758C56.8278 2.41803 56.7494 2.91879 56.7494 3.51971V43.4805C56.7494 44.0814 56.8278 44.5321 57.0107 44.8827C57.1674 45.1831 57.4287 45.3834 57.7422 45.3834H65.0054C66.5208 45.3834 67.8271 45.083 68.8722 44.482C69.9173 43.8811 70.7533 42.9297 71.3803 41.7279C72.0074 40.526 72.4777 38.9236 72.7389 37.0207C73.0263 35.1178 73.157 32.9144 73.157 30.3606V16.6397C73.157 14.0858 73.0263 11.8824 72.7389 9.97954C72.4515 8.07664 72.0074 6.52428 71.3803 5.32245C70.7533 4.07055 69.9173 3.16918 68.8722 2.56826C67.8271 1.96735 66.5469 1.66689 65.0054 1.66689L57.7161 1.61681ZM48.206 28.007C48.206 29.2088 48.1798 30.3105 48.1537 31.2619C48.1014 32.2134 47.9969 33.0146 47.8402 33.7157C47.6834 34.4167 47.4222 34.9175 47.0564 35.268C46.7167 35.6186 46.2465 35.8189 45.6455 35.8189C45.0446 35.8189 44.5743 35.6186 44.2347 35.268C43.8689 34.9175 43.6338 34.4167 43.4509 33.7157C43.2941 33.0647 43.1896 32.2134 43.1374 31.2619C43.0851 30.3105 43.059 29.2088 43.0851 28.007V18.9933C43.0851 17.7914 43.1112 16.6898 43.1374 15.7383C43.1896 14.7869 43.2941 13.9856 43.4509 13.2846C43.6077 12.5835 43.8689 12.0827 44.2347 11.7322C44.5743 11.3817 45.0446 11.1814 45.6455 11.1814C46.2465 11.1814 46.7167 11.3817 47.0564 11.7322C47.4222 12.0827 47.6573 12.5835 47.8402 13.2846C47.9969 13.9356 48.1014 14.7869 48.1537 15.7383C48.206 16.6898 48.206 17.7914 48.206 18.9933V28.007ZM53.7971 15.6882C53.7971 14.9872 53.7709 14.1359 53.7187 13.1343C53.6664 12.1328 53.5619 11.0812 53.379 9.92946C53.1962 8.77771 52.9349 7.67603 52.5952 6.57436C52.2295 5.47268 51.7592 4.47116 51.1583 3.56979C50.5574 2.66841 49.7997 1.91727 48.8853 1.36643C47.9708 0.815594 46.8735 0.565213 45.5933 0.515137C44.3131 0.515137 43.2158 0.815594 42.3013 1.36643C41.3869 1.91727 40.6292 2.66841 40.0283 3.56979C39.4274 4.47116 38.9571 5.47268 38.5913 6.57436C38.2256 7.67603 37.9643 8.82779 37.8075 9.92946C37.6246 11.0812 37.5201 12.1328 37.4679 13.1343C37.4156 14.1359 37.3895 14.9872 37.3895 15.6882V31.312C37.3895 32.0131 37.4156 32.8644 37.4679 33.8659C37.5201 34.8674 37.6246 35.919 37.8075 37.0708C37.9643 38.2225 38.2517 39.3242 38.5913 40.4259C38.9571 41.5275 39.4274 42.5291 40.0283 43.4805C40.6292 44.3819 41.3869 45.133 42.3013 45.6338C43.2158 46.1846 44.3131 46.4851 45.5933 46.4851C46.8735 46.4851 47.9708 46.1846 48.8853 45.6338C49.7997 45.083 50.5574 44.3819 51.1583 43.4805C51.7592 42.5792 52.2295 41.5776 52.5952 40.4259C52.961 39.3242 53.2223 38.1724 53.379 37.0708C53.5358 35.919 53.6664 34.8674 53.7187 33.8659C53.7709 32.8644 53.7971 32.0131 53.7971 31.312V15.6882ZM29.2118 28.007C29.2118 29.2088 29.1857 30.3105 29.1596 31.2619C29.1073 32.2134 29.0028 33.0146 28.8461 33.7157C28.6893 34.4167 28.428 34.9175 28.0623 35.268C27.7226 35.6186 27.2523 35.8189 26.6514 35.8189C26.0505 35.8189 25.5802 35.6186 25.2406 35.268C24.8748 34.9175 24.6397 34.4167 24.4568 33.7157C24.3 33.0647 24.1955 32.2134 24.1432 31.2619C24.091 30.3105 24.0649 29.2088 24.091 28.007V18.9933C24.091 17.7914 24.1171 16.6898 24.1432 15.7383C24.1955 14.7869 24.3 13.9856 24.4568 13.2846C24.6135 12.5835 24.8748 12.0827 25.2406 11.7322C25.5802 11.3817 26.0505 11.1814 26.6514 11.1814C27.2523 11.1814 27.7226 11.3817 28.0623 11.7322C28.428 12.0827 28.6632 12.5835 28.8461 13.2846C29.0028 13.9356 29.1073 14.7869 29.1596 15.7383C29.2118 16.6898 29.2118 17.7914 29.2118 18.9933V28.007ZM34.8291 15.6882C34.8291 14.9872 34.803 14.1359 34.7507 13.1343C34.6984 12.1328 34.5939 11.0812 34.411 9.92946C34.2282 8.77771 33.9669 7.67603 33.6272 6.57436C33.2615 5.47268 32.7912 4.47116 32.1903 3.56979C31.5894 2.66841 30.8317 1.91727 29.9173 1.36643C29.0028 0.815594 27.9055 0.565213 26.6253 0.515137C25.3451 0.515137 24.2478 0.815594 23.3333 1.36643C22.4189 1.91727 21.6612 2.66841 21.0603 3.56979C20.4594 4.47116 19.9891 5.47268 19.6233 6.57436C19.2576 7.67603 18.9963 8.82779 18.8395 9.92946C18.6566 11.0812 18.5521 12.1328 18.4999 13.1343C18.4476 14.1359 18.4215 14.9872 18.4215 15.6882V31.312C18.4215 32.0131 18.4476 32.8644 18.4999 33.8659C18.5521 34.8674 18.6566 35.919 18.8395 37.0708C18.9963 38.2225 19.2837 39.3242 19.6233 40.4259C19.9891 41.5275 20.4594 42.5291 21.0603 43.4805C21.6612 44.3819 22.4189 45.133 23.3333 45.6338C24.2478 46.1846 25.3451 46.4851 26.6253 46.4851C27.9055 46.4851 29.0028 46.1846 29.9173 45.6338C30.8317 45.083 31.5894 44.3819 32.1903 43.4805C32.7912 42.5792 33.2615 41.5776 33.6272 40.4259C33.993 39.3242 34.2543 38.1724 34.411 37.0708C34.5678 35.919 34.6984 34.8674 34.7507 33.8659C34.803 32.8644 34.8291 32.0131 34.8291 31.312V15.6882ZM15.5476 1.61681C16.2007 1.61681 16.5142 2.2678 16.5142 3.46963V10.4803C16.5142 11.0812 16.4359 11.5319 16.2791 11.8824C16.1223 12.233 15.8611 12.3832 15.5476 12.3832H7.03025C6.71673 12.3832 6.48159 12.5334 6.2987 12.8339C6.11582 13.1343 6.03744 13.6351 6.03744 14.236V43.5306C6.03744 44.1315 5.95906 44.5822 5.80229 44.9327C5.64553 45.2332 5.38427 45.4335 5.07075 45.4335H1.23012C0.916599 45.4335 0.681459 45.2833 0.498572 44.9327C0.341812 44.5822 0.237305 44.1315 0.237305 43.5306V3.51971C0.237305 2.91879 0.315685 2.41803 0.498572 2.11758C0.681459 1.81712 0.916599 1.66689 1.23012 1.66689L15.5476 1.61681Z" fill="#B59571"/>
</svg>
