<svg width="24" height="10" viewBox="0 0 24 10" fill="none" xmlns="http://www.w3.org/2000/svg">
<path d="M15.2843 6.40307C12.8546 6.00246 0.993032 9.7081 0.104724 5.702C-1.3845 -0.958134 11.0779 2.79758 12.7501 2.89773C13.5861 2.94781 14.6312 3.24827 15.2321 2.94781C15.6501 2.69743 15.9375 1.39545 16.4078 0.894687C17.4529 -0.307142 19.1511 0.343847 20.6142 0.594228C21.607 0.744457 22.5737 0.944762 23.6188 1.09499C22.1295 1.4956 20.5358 1.89621 18.9682 2.29682C18.7853 2.3469 18.4979 2.19667 18.3673 2.59728C19.961 3.09804 21.7638 3.19819 23.4881 3.44857C21.7899 3.94933 19.8826 4.04949 18.2105 4.6504C18.315 5.00094 18.6286 4.90078 18.8114 4.95086C20.3007 5.15116 21.9467 5.40155 23.5143 5.55177C21.8944 6.05254 20.0133 6.15269 18.3934 6.7536C18.4457 7.25437 18.7853 7.10414 18.9421 7.10414C20.4313 7.45467 22.1034 7.85528 23.6449 8.10566C21.9467 8.35604 19.8565 9.10718 18.106 9.30749C16.7474 9.45772 15.9375 7.95543 15.2843 6.40307Z" fill="#B59571"/>
</svg>
