<svg width="34" height="24" viewBox="0 0 34 24" fill="none" xmlns="http://www.w3.org/2000/svg">
<path d="M32.9691 4.37279C32.7804 3.69966 32.4129 3.09024 31.9055 2.60931C31.3838 2.1136 30.7444 1.759 30.0476 1.57899C27.4398 0.891651 16.9923 0.891651 16.9923 0.891651C12.6368 0.842097 8.28237 1.06005 3.9536 1.54428C3.25681 1.73759 2.61858 2.1001 2.0957 2.59959C1.58193 3.09392 1.20979 3.7035 1.01539 4.3714C0.548407 6.88714 0.321514 9.44155 0.337771 12.0002C0.321108 14.5566 0.547445 17.1101 1.01539 19.629C1.20563 20.2941 1.57637 20.9009 2.09153 21.3911C2.60669 21.8813 3.24821 22.2353 3.9536 22.4228C6.59605 23.1088 16.9923 23.1087 16.9923 23.1087C21.3533 23.1584 25.7132 22.9404 30.0476 22.4561C30.7444 22.2761 31.3838 21.9215 31.9055 21.4258C32.4193 20.9356 32.7844 20.3261 32.9677 19.6623C33.4469 17.1476 33.6799 14.5921 33.6634 12.0321C33.6995 9.46135 33.4668 6.89383 32.9691 4.3714V4.37279ZM13.6708 16.7547V7.24713L22.3632 12.0016L13.6708 16.7547Z" fill="#B59571"/>
</svg>
